<?xml version="1.0" standalone="no"?>
<!DOCTYPE svg PUBLIC "-//W3C//DTD SVG 20010904//EN"
 "http://www.w3.org/TR/2001/REC-SVG-20010904/DTD/svg10.dtd">
<svg version="1.0" xmlns="http://www.w3.org/2000/svg"
 width="300.000000pt" height="299.000000pt" viewBox="0 0 300.000000 299.000000"
 preserveAspectRatio="xMidYMid meet">
<metadata>
Created by potrace 1.10, written by Peter Selinger 2001-2011
</metadata>
<g transform="translate(0.000000,299.000000) scale(0.100000,-0.100000)"
fill="#ffffff" stroke="none">
<path d="M1341 2936 c-19 -22 4 -60 31 -52 12 2 34 -2 50 -10 l28 -15 0 -109
c0 -103 -1 -110 -20 -110 -18 0 -20 7 -20 73 -1 60 -4 77 -24 100 -29 35 -61
33 -61 -3 0 -22 4 -25 33 -24 l32 2 0 -74 c0 -68 -2 -74 -22 -78 -13 -2 -59
-10 -103 -19 -76 -13 -81 -13 -104 4 -13 11 -37 19 -53 19 -34 0 -78 -39 -78
-69 0 -14 -13 -27 -40 -41 -21 -11 -42 -20 -44 -20 -7 0 -39 61 -34 65 2 1 21
12 43 23 81 40 191 74 244 76 61 1 86 21 62 50 -19 22 -62 21 -68 -2 -3 -13
-29 -26 -87 -45 -69 -21 -127 -45 -210 -85 -5 -3 -6 7 -3 21 8 28 -14 53 -38
43 -22 -8 -19 -47 5 -53 11 -3 20 -9 20 -13 0 -7 -103 -70 -114 -70 -3 0 -6
12 -8 28 -4 35 -41 39 -46 5 -3 -18 2 -23 17 -23 37 0 22 -24 -51 -80 -188
-145 -340 -377 -399 -608 -21 -84 -39 -212 -31 -226 2 -4 20 -6 39 -3 31 5 34
4 31 -15 -3 -20 -8 -21 -73 -19 -38 1 -76 7 -83 13 -10 8 -17 7 -30 -5 -15
-16 -15 -18 1 -34 14 -15 21 -15 37 -5 11 6 47 12 80 12 47 0 60 -3 60 -15 0
-12 -18 -15 -99 -15 l-100 0 -15 31 c-12 25 -13 35 -4 46 15 18 -13 49 -36 40
-20 -8 -21 -46 -1 -53 8 -3 20 -21 27 -40 l12 -34 108 0 c65 0 108 -4 108 -10
0 -6 -42 -10 -106 -10 l-105 0 -16 -37 c-8 -21 -21 -42 -29 -46 -18 -11 -18
-43 1 -51 21 -8 49 22 35 39 -8 10 -7 22 5 44 l16 31 99 0 c82 0 100 -3 100
-15 0 -12 -14 -15 -63 -15 -35 0 -68 5 -74 11 -14 14 -53 2 -53 -17 0 -21 28
-29 54 -15 12 7 48 11 81 9 47 -2 61 -7 63 -20 2 -13 -5 -17 -35 -20 l-38 -3
3 -45 c10 -134 73 -340 133 -435 29 -45 30 -51 17 -78 l-14 -30 -13 41 c-11
33 -19 41 -43 44 -18 3 -27 1 -24 -6 2 -6 16 -39 31 -72 24 -56 25 -65 13 -88
-13 -26 -14 -24 -56 72 -38 84 -46 97 -68 97 -13 0 -24 -2 -24 -5 0 -2 26 -62
57 -132 48 -107 61 -128 79 -128 16 0 26 10 37 37 l14 37 14 -37 c10 -28 19
-37 36 -37 17 0 27 11 44 50 l21 49 48 -52 c27 -29 82 -80 124 -112 42 -33 76
-63 76 -66 0 -4 -9 -9 -21 -12 -28 -7 -23 -52 6 -52 14 0 21 8 23 27 2 16 7
28 12 28 5 0 32 -14 60 -32 51 -31 52 -33 31 -46 -24 -17 -28 -50 -6 -58 24
-9 46 15 39 42 -3 13 -4 24 -1 24 2 0 37 -15 78 -34 41 -19 107 -44 147 -55
46 -14 72 -27 72 -36 0 -22 49 -31 67 -12 31 31 -8 78 -48 56 -15 -8 -38 -4
-100 16 -62 20 -176 67 -197 80 -5 4 21 55 28 55 3 0 44 -15 91 -34 97 -39
218 -72 302 -82 l57 -7 0 -72 0 -73 -32 2 c-29 1 -33 -2 -33 -24 0 -33 44 -42
52 -11 3 11 11 22 19 25 10 4 14 25 14 80 0 69 1 74 20 69 18 -5 20 -14 20
-103 0 -94 -1 -99 -26 -119 -17 -13 -35 -19 -48 -15 -31 8 -51 -18 -36 -46 14
-27 41 -22 57 9 6 14 23 31 37 38 26 13 26 16 26 123 l0 110 38 0 37 0 -3
-104 -4 -105 36 -23 c19 -13 37 -31 40 -40 6 -27 37 -34 52 -13 19 25 0 59
-29 51 -11 -3 -33 2 -49 12 -28 16 -28 17 -28 118 0 93 2 102 20 107 19 5 20
0 20 -69 0 -55 4 -76 14 -80 8 -3 16 -14 19 -25 8 -31 52 -22 52 11 0 22 -4
25 -32 24 l-33 -2 0 64 c0 35 0 67 0 71 -1 4 34 13 77 19 102 16 179 37 286
80 49 20 90 34 91 32 2 -1 8 -13 15 -25 11 -21 8 -24 -46 -51 -98 -49 -219
-85 -242 -72 -41 22 -81 -26 -49 -58 18 -18 45 -14 61 8 8 11 51 32 105 49 50
17 113 41 141 55 62 32 65 32 57 2 -8 -31 17 -54 39 -36 21 18 19 41 -5 47
-22 6 -28 33 -7 33 7 0 29 11 49 25 47 32 56 31 60 -2 4 -36 41 -40 46 -6 3
17 -4 26 -25 34 -27 10 -27 11 -8 21 26 14 135 106 157 132 16 19 17 20 36 3
10 -9 34 -17 53 -17 26 1 30 3 18 10 -9 5 -24 21 -33 35 -16 25 -16 27 17 68
19 23 42 56 50 72 l16 30 1 -37 c0 -44 27 -68 80 -69 76 -2 105 -22 75 -53
-23 -23 -81 -20 -105 4 -18 18 -60 28 -60 15 0 -25 35 -65 66 -75 76 -26 154
13 154 76 0 44 -35 70 -105 79 -63 7 -74 18 -49 46 22 25 69 25 91 -1 24 -27
63 -27 56 0 -15 57 -123 82 -175 40 -14 -10 -27 -17 -29 -15 -3 2 -29 -29 -59
-70 l-55 -74 -29 29 -30 29 26 20 c14 11 47 52 74 91 36 53 53 70 71 70 21 0
23 4 23 50 0 28 7 65 16 82 23 45 61 177 69 242 7 50 10 56 31 56 19 0 24 -5
24 -24 0 -41 -29 -194 -46 -238 -48 -128 -60 -157 -87 -201 -37 -61 -28 -73
12 -17 34 47 81 161 111 272 20 76 40 215 32 223 -3 3 -20 5 -38 5 -27 0 -31
3 -27 20 5 17 14 20 69 20 34 0 66 -4 69 -10 8 -12 42 -13 49 -1 4 5 3 16 0
25 -7 18 -39 22 -49 6 -3 -5 -35 -10 -71 -10 -50 0 -64 3 -64 15 0 12 18 15
100 15 l99 0 16 -31 c12 -22 13 -34 6 -43 -15 -18 9 -49 32 -40 21 8 23 42 3
50 -8 3 -22 23 -30 45 l-16 40 -105 -3 c-79 -2 -105 0 -105 10 0 9 28 12 105
12 l104 0 17 33 c9 17 23 36 30 40 19 11 18 46 -2 54 -22 8 -51 -22 -37 -39 7
-9 6 -23 -3 -45 l-14 -33 -100 0 c-82 0 -100 3 -100 15 0 12 13 15 60 15 33 0
69 -6 80 -12 16 -10 23 -10 37 5 16 16 16 18 1 34 -13 12 -20 13 -30 6 -14
-12 -148 -22 -148 -11 0 3 -3 13 -6 22 -5 13 1 15 32 13 l38 -2 -3 50 c-3 64
-32 189 -66 285 -70 195 -215 389 -387 519 -32 24 -58 45 -58 47 0 3 12 9 26
14 31 12 29 44 -4 48 -19 3 -22 -1 -22 -27 0 -17 -2 -31 -5 -31 -12 0 -115 63
-115 70 0 4 9 10 20 13 24 6 27 45 5 53 -24 10 -46 -15 -38 -43 3 -14 2 -24
-3 -22 -5 3 -35 16 -66 31 -31 14 -95 39 -142 54 -59 19 -86 33 -89 46 -6 23
-49 24 -68 2 -22 -27 1 -49 52 -50 24 0 64 -6 89 -13 50 -14 210 -81 210 -88
0 -2 -7 -17 -15 -33 l-15 -29 -42 19 c-32 14 -45 27 -51 49 -14 57 -82 79
-128 43 -20 -17 -28 -18 -83 -7 -34 7 -81 16 -106 19 l-45 6 3 74 4 74 31 -2
c28 -1 32 2 32 24 0 35 -31 38 -61 5 -21 -23 -24 -35 -24 -101 0 -67 -2 -74
-20 -74 -19 0 -20 7 -20 108 0 107 0 109 27 123 14 8 38 14 52 14 22 0 26 4
26 30 0 23 -5 31 -22 33 -16 2 -24 -3 -28 -20 -3 -13 -22 -33 -41 -46 l-36
-23 4 -110 3 -109 -37 0 -38 0 0 114 0 115 -28 16 c-16 10 -32 27 -38 38 -11
27 -37 33 -53 13z m37 -23 c-4 -22 -22 -20 -26 1 -2 10 3 16 13 16 10 0 15 -7
13 -17z m272 2 c0 -8 -7 -15 -15 -15 -8 0 -15 7 -15 15 0 8 7 15 15 15 8 0 15
-7 15 -15z m-284 -96 c10 -17 -13 -36 -27 -22 -12 12 -4 33 11 33 5 0 12 -5
16 -11z m297 -4 c8 -18 -11 -31 -25 -17 -11 11 -3 32 12 32 4 0 10 -7 13 -15z
m-420 -110 c1 -5 -6 -11 -15 -13 -11 -2 -18 3 -18 13 0 17 30 18 33 0z m547 0
c0 -8 -9 -15 -20 -15 -20 0 -26 11 -13 23 12 13 33 7 33 -8z m-910 -73 c0 -13
-12 -22 -22 -16 -10 6 -1 24 13 24 5 0 9 -4 9 -8z m1260 -7 c0 -8 -4 -15 -10
-15 -5 0 -10 7 -10 15 0 8 5 15 10 15 6 0 10 -7 10 -15z m-615 -5 c11 4 24 5
29 2 10 -5 30 -9 113 -17 79 -9 178 -31 214 -49 18 -9 40 -16 49 -16 9 0 42
-14 73 -31 31 -17 57 -28 57 -24 0 3 6 1 13 -5 6 -6 41 -29 77 -52 63 -39 210
-157 210 -168 0 -3 18 -25 41 -50 34 -39 99 -126 121 -163 14 -25 78 -163 78
-169 0 -4 5 -19 12 -35 6 -15 13 -39 15 -53 2 -14 6 -32 10 -40 4 -8 8 -28 10
-45 1 -16 8 -57 13 -90 13 -74 11 -211 -4 -270 -2 -11 -16 -74 -31 -140 -14
-65 -28 -121 -31 -124 -2 -2 -4 28 -4 67 0 71 0 72 -26 72 l-26 0 4 -80 c2
-44 2 -80 1 -80 -1 0 -30 19 -63 42 -66 45 -90 72 -90 100 0 13 -8 18 -25 18
l-25 0 0 -135 0 -135 26 0 26 0 -4 80 c-2 44 -2 80 -1 80 13 0 137 -98 145
-114 13 -30 -35 -106 -68 -106 -14 0 -37 -17 -63 -48 l-41 -47 0 48 c0 43 -2
47 -25 47 l-25 0 0 -130 0 -130 25 0 c24 0 25 3 25 58 l1 57 30 -33 c36 -40
37 -39 -76 -129 l-80 -63 -17 23 c-10 12 -18 25 -18 29 0 3 22 23 50 43 27 20
50 41 50 46 0 15 -12 10 -37 -13 l-23 -21 0 21 c0 12 -9 26 -20 32 -36 19 -43
47 -21 77 28 35 27 78 -4 108 -21 22 -33 25 -90 25 l-65 0 0 -130 0 -130 25 0
c23 0 25 4 25 45 0 37 3 45 19 45 10 0 29 -16 42 -35 13 -19 37 -41 53 -49
l28 -14 -52 -26 c-28 -14 -58 -26 -66 -26 -9 0 -13 -4 -9 -9 7 -13 -16 -26
-24 -14 -3 6 -15 7 -26 2 -18 -7 -18 -8 5 -8 92 -3 -239 -124 -400 -146 -61
-9 -212 -14 -205 -7 6 6 146 32 180 33 29 1 29 1 5 8 -14 4 -38 3 -55 -2 -38
-12 -376 -17 -369 -6 3 5 11 9 18 9 23 0 57 47 58 78 1 17 4 29 8 27 4 -3 18
3 31 13 13 11 39 25 57 33 17 8 32 20 32 26 0 18 3 19 -94 -33 -48 -25 -90
-44 -93 -41 -3 3 1 25 9 49 10 30 25 50 50 67 37 24 78 85 65 97 -16 16 -144
-66 -248 -159 -128 -115 -108 -113 -256 -20 -47 29 -88 53 -91 53 -3 0 5 -11
17 -24 22 -23 22 -25 6 -50 -10 -14 -22 -23 -29 -19 -33 19 -157 127 -198 172
l-47 51 16 35 c15 32 33 47 33 27 0 -4 20 -30 45 -59 35 -40 45 -59 45 -86 l0
-35 53 -4 c93 -6 117 0 117 28 0 23 -3 24 -66 24 l-65 0 3 27 c3 24 10 30 56
42 40 11 52 18 52 33 0 17 -5 19 -37 16 -21 -3 -46 -8 -56 -13 -16 -7 -18 -3
-15 26 l3 33 58 -3 c55 -2 57 -2 57 23 0 26 -1 26 -80 26 l-79 0 -3 -80 -3
-79 -48 54 c-46 52 -47 56 -33 77 23 32 20 37 -17 31 -31 -5 -34 -2 -62 48
-16 29 -30 48 -33 41 -2 -7 10 -35 28 -62 30 -46 31 -51 19 -85 -15 -41 -20
-42 -37 -15 -9 15 -10 26 -2 40 16 30 12 37 -18 32 -26 -3 -31 1 -59 60 -58
118 -95 240 -111 366 l-9 62 28 0 c25 0 27 -4 39 -67 7 -38 23 -101 36 -141
17 -50 24 -96 24 -147 0 -73 1 -75 24 -75 29 0 34 19 25 100 -3 30 -5 56 -4
58 2 2 20 -24 41 -57 28 -43 45 -60 62 -60 12 -1 22 5 22 12 0 8 16 36 36 63
l35 49 -3 -83 c-3 -79 -2 -82 20 -82 22 0 22 2 22 135 0 124 -2 135 -18 135
-11 0 -25 -14 -35 -37 -9 -21 -32 -57 -51 -80 l-34 -43 -42 55 c-41 53 -43 58
-32 91 6 20 59 116 117 214 l107 179 48 -35 c26 -19 51 -34 56 -34 5 0 26 30
47 68 142 254 148 262 248 335 188 135 199 145 199 175 0 22 19 45 97 117 53
50 99 91 102 92 3 1 65 -55 136 -125 162 -157 329 -360 371 -450 33 -70 20
-57 438 -462 60 -58 104 -96 98 -85 -9 17 -459 461 -482 475 -13 8 -69 137
-63 144 4 3 2 6 -4 6 -5 0 -43 41 -84 92 -106 131 -128 157 -185 215 -28 29
-49 55 -47 58 1 3 0 3 -4 0 -9 -7 -44 26 -37 37 3 4 2 7 -3 6 -4 -1 -26 16
-48 38 -60 59 -85 75 -105 64 -10 -5 -58 -48 -108 -96 -68 -64 -93 -94 -98
-119 -6 -33 -14 -40 -164 -143 -36 -25 -79 -59 -97 -77 -17 -18 -35 -30 -39
-26 -4 3 -4 1 -1 -5 3 -6 -5 -27 -18 -47 -14 -20 -25 -40 -25 -46 0 -5 -4 -11
-8 -13 -4 -1 -30 -41 -57 -88 -66 -116 -61 -111 -95 -93 -16 8 -32 18 -35 24
-4 5 -16 9 -28 9 -23 0 -38 -21 -173 -245 -43 -71 -66 -121 -66 -140 0 -16 -2
-24 -5 -17 -3 6 -16 12 -29 12 -21 0 -24 -5 -25 -42 -1 -31 -7 -11 -23 72 -11
63 -24 120 -27 125 -7 13 -4 212 4 245 4 14 8 41 10 60 6 50 33 145 60 216 75
191 215 370 387 496 120 87 370 202 400 183 6 -3 10 -2 10 3 0 8 117 30 193
36 21 2 40 6 43 9 3 3 18 2 32 -2 15 -5 36 -5 47 -1z m421 -32 c3 -11 4 -21 2
-23 -6 -6 -108 30 -108 38 0 4 10 11 22 16 30 11 76 -6 84 -31z m-789 17 c3
-9 -15 -16 -105 -43 -10 -3 -9 4 3 28 15 28 20 31 57 28 23 -2 43 -8 45 -13z
m-416 -58 c-13 -13 -26 -3 -16 12 3 6 11 8 17 5 6 -4 6 -10 -1 -17z m1530 0
c-13 -13 -26 -3 -16 12 3 6 11 8 17 5 6 -4 6 -10 -1 -17z m-1364 -9 c16 -36
13 -41 -38 -70 l-48 -28 -20 29 -21 29 47 30 c58 37 67 38 80 10z m1261 -9
l53 -30 -22 -30 -21 -30 -31 21 c-18 12 -42 26 -54 32 -22 11 -22 12 -6 39 10
16 20 29 23 29 3 0 29 -14 58 -31z m-1379 -70 c13 -17 21 -32 19 -33 -59 -43
-67 -46 -92 -35 -52 24 -120 -37 -98 -87 11 -22 7 -31 -46 -93 -115 -138 -197
-309 -238 -499 -16 -74 -20 -82 -41 -82 -20 0 -23 5 -23 34 0 62 27 179 67
287 42 114 134 264 219 358 45 51 192 180 205 181 3 0 15 -14 28 -31z m1526
-30 c200 -157 352 -407 399 -658 23 -121 22 -141 -9 -141 -20 0 -25 5 -25 24
0 13 -11 67 -25 121 -40 159 -142 350 -247 464 -31 33 -36 44 -29 63 11 31 -2
63 -34 84 -22 15 -32 16 -57 6 -27 -10 -34 -8 -64 15 l-34 25 21 29 c23 33 21
34 104 -32z m-1593 -55 c8 -7 -75 -83 -84 -78 -14 9 -9 47 9 66 15 17 63 25
75 12z m1637 -25 c8 -14 12 -33 8 -42 -5 -14 -13 -10 -47 20 -48 44 -50 55 -8
51 23 -2 37 -11 47 -29z m-2279 -729 c0 -5 -7 -10 -15 -10 -8 0 -15 5 -15 10
0 6 7 10 15 10 8 0 15 -4 15 -10z m2865 0 c3 -5 -1 -10 -9 -10 -9 0 -16 5 -16
10 0 6 4 10 9 10 6 0 13 -4 16 -10z m-2785 -50 c0 -5 -4 -10 -10 -10 -5 0 -10
5 -10 10 0 6 5 10 10 10 6 0 10 -4 10 -10z m2700 2 c0 -13 -12 -22 -22 -16
-10 6 -1 24 13 24 5 0 9 -4 9 -8z m-2700 -127 c0 -8 -4 -15 -10 -15 -5 0 -10
7 -10 15 0 8 5 15 10 15 6 0 10 -7 10 -15z m2697 -11 c-9 -9 -28 6 -21 18 4 6
10 6 17 -1 6 -6 8 -13 4 -17z m-2780 -50 c-9 -9 -28 6 -21 18 4 6 10 6 17 -1
6 -6 8 -13 4 -17z m2864 3 c-13 -13 -26 -3 -16 12 3 6 11 8 17 5 6 -4 6 -10
-1 -17z m-2509 -241 c1 -10 -1 -21 -7 -22 -5 -2 -10 9 -10 26 0 31 11 28 17
-4z m1949 -19 c-8 -8 -11 -3 -11 19 1 25 2 27 11 11 8 -14 8 -22 0 -30z
m-1744 1 c-3 -7 -5 -2 -5 12 0 14 2 19 5 13 2 -7 2 -19 0 -25z m1919 -105
c-10 -10 -19 5 -10 18 6 11 8 11 12 0 2 -7 1 -15 -2 -18z m-396 -187 c6 -8 10
-25 8 -38 -2 -19 -10 -24 -40 -26 l-38 -3 0 40 c0 38 2 41 29 41 16 0 34 -7
41 -14z m-1701 -89 c-18 -47 -24 -50 -35 -19 -8 20 -7 36 3 61 l14 34 16 -22
c12 -19 13 -27 2 -54z m1921 32 c0 -8 -29 -39 -36 -39 -2 0 -4 10 -4 23 0 16
6 23 20 23 11 0 20 -3 20 -7z m-1695 -18 c3 -5 2 -12 -3 -15 -5 -3 -9 1 -9 9
0 17 3 19 12 6z m1395 -21 c0 -11 -2 -20 -4 -20 -2 0 -6 9 -9 20 -3 11 -1 20
4 20 5 0 9 -9 9 -20z m-760 -39 c0 -6 -18 -20 -40 -32 -35 -20 -43 -31 -58
-81 -9 -33 -24 -60 -33 -63 -18 -6 -27 -95 -9 -95 5 0 10 15 10 34 0 40 2 42
52 51 l38 7 -11 -30 c-6 -18 -26 -40 -46 -52 -34 -20 -37 -20 -92 -4 -30 9
-68 22 -83 30 l-27 14 25 25 c14 14 27 25 30 25 2 0 18 14 34 30 16 17 34 30
40 30 5 0 10 5 10 10 0 14 120 101 131 94 5 -3 9 0 9 5 0 6 5 11 10 11 6 0 10
-4 10 -9z m-407 -192 c7 -5 -5 -41 -19 -58 -1 -2 -28 11 -58 28 l-55 32 17 28
16 29 46 -26 c25 -14 49 -29 53 -33z m1290 29 l17 -27 -56 -31 c-30 -18 -57
-31 -58 -29 -9 10 -27 51 -24 54 8 7 103 64 103 62 1 -1 9 -14 18 -29z m-1453
-78 c0 -5 -7 -10 -15 -10 -8 0 -15 5 -15 10 0 6 7 10 15 10 8 0 15 -4 15 -10z
m1530 0 c0 -5 -7 -10 -15 -10 -8 0 -15 5 -15 10 0 6 7 10 15 10 8 0 15 -4 15
-10z m-1400 -75 c0 -8 -4 -15 -9 -15 -13 0 -22 16 -14 24 11 11 23 6 23 -9z
m1260 0 c0 -8 -4 -15 -10 -15 -5 0 -10 7 -10 15 0 8 5 15 10 15 6 0 10 -7 10
-15z m-890 -76 c0 -12 -29 -24 -37 -16 -3 4 -3 13 0 21 6 16 37 11 37 -5z
m540 -5 c0 -17 -26 -19 -36 -3 -7 12 15 31 28 23 4 -3 8 -12 8 -20z m-425 -93
c7 -12 -12 -24 -25 -16 -11 7 -4 25 10 25 5 0 11 -4 15 -9z m300 -1 c3 -6 -1
-13 -10 -16 -19 -8 -30 0 -20 15 8 14 22 14 30 1z m-285 -116 c0 -8 -7 -14
-15 -14 -15 0 -21 21 -9 33 10 9 24 -2 24 -19z m270 0 c0 -8 -7 -14 -15 -14
-15 0 -21 21 -9 33 10 9 24 -2 24 -19z"/>
<path d="M1480 2304 c0 -3 27 -55 59 -115 51 -93 57 -109 40 -109 -22 0 -22 7
-8 -139 7 -66 18 -126 26 -139 14 -22 13 -23 -4 -18 -123 38 -155 47 -157 44
-2 -2 -20 -46 -40 -98 -33 -84 -44 -100 -87 -133 -27 -21 -49 -42 -49 -46 0
-5 23 -11 51 -15 34 -5 49 -11 46 -19 -3 -7 -33 -74 -67 -151 -33 -76 -59
-141 -56 -143 5 -6 28 7 224 120 61 36 112 64 112 62 0 -2 -9 -41 -20 -88 -15
-64 -18 -94 -11 -123 l9 -39 1 48 c1 26 1 48 0 50 0 1 5 16 11 32 18 47 28
115 19 121 -5 3 -7 10 -3 15 7 12 -59 -15 -106 -43 -19 -12 -60 -35 -90 -53
-30 -17 -67 -39 -83 -49 -32 -22 -32 -21 13 79 14 33 35 81 46 107 10 27 26
48 34 49 13 0 13 1 0 6 -8 4 -19 12 -25 19 -5 7 -19 14 -29 16 -30 5 -29 21 4
43 29 20 45 47 84 145 24 61 24 61 124 39 64 -15 81 -5 64 38 -6 15 -14 66
-18 113 -3 47 -8 88 -11 92 -2 4 3 23 12 42 16 34 16 36 -11 88 -28 54 -95
158 -101 158 -1 0 -3 -3 -3 -6z"/>
<path d="M1405 2020 c-3 -5 -1 -10 4 -10 6 0 11 5 11 10 0 6 -2 10 -4 10 -3 0
-8 -4 -11 -10z"/>
<path d="M1240 1970 c-9 -6 -10 -10 -3 -10 6 0 15 5 18 10 8 12 4 12 -15 0z"/>
<path d="M1195 1950 c-16 -7 -17 -9 -3 -9 9 -1 20 4 23 9 7 11 7 11 -20 0z"/>
<path d="M1150 1930 c-9 -6 -10 -10 -3 -10 6 0 15 5 18 10 8 12 4 12 -15 0z"/>
<path d="M1210 1716 c0 -8 51 -13 56 -5 3 5 -9 9 -25 9 -17 0 -31 -2 -31 -4z"/>
<path d="M1233 1478 c-7 -8 -7 -21 -2 -33 9 -19 9 -19 5 2 -2 12 1 24 8 26 6
2 8 7 5 11 -3 4 -11 1 -16 -6z"/>
<path d="M1170 1450 c-9 -6 -10 -10 -3 -10 6 0 15 5 18 10 8 12 4 12 -15 0z"/>
<path d="M970 1409 c0 -5 5 -7 10 -4 6 3 10 8 10 11 0 2 -4 4 -10 4 -5 0 -10
-5 -10 -11z"/>
<path d="M1798 1413 c6 -2 18 -2 25 0 6 3 1 5 -13 5 -14 0 -19 -2 -12 -5z"/>
<path d="M1858 1403 c7 -3 16 -2 19 1 4 3 -2 6 -13 5 -11 0 -14 -3 -6 -6z"/>
<path d="M1038 1328 c-10 -10 -18 -22 -18 -28 0 -5 -3 -10 -8 -10 -4 0 -12
-20 -18 -44 -5 -25 -7 -43 -3 -40 4 2 10 18 14 34 4 16 18 46 31 66 28 40 28
50 2 22z"/>
<path d="M834 1209 c-52 -15 -77 -51 -82 -119 -4 -59 -4 -61 36 -100 32 -32
47 -40 77 -40 86 0 151 87 126 170 -11 38 -61 90 -86 90 -7 0 -19 2 -27 4 -7
2 -27 0 -44 -5z m77 -52 c66 -51 38 -160 -41 -160 -41 0 -80 40 -80 83 0 63
76 112 121 77z"/>
<path d="M844 1096 c-10 -26 4 -48 28 -44 17 2 23 10 23 28 0 18 -6 26 -23 28
-13 2 -25 -3 -28 -12z"/>
<path d="M1070 1119 l0 -101 34 -34 c28 -28 42 -34 76 -34 34 0 48 6 76 34
l34 34 0 102 c0 97 -1 101 -21 98 -19 -3 -20 -10 -22 -96 -2 -85 -4 -96 -26
-113 -29 -24 -53 -24 -82 0 -23 18 -24 25 -21 115 l3 96 -26 0 -25 0 0 -101z"/>
<path d="M1361 1085 l1 -135 24 0 c23 0 24 2 24 79 l0 80 60 -41 c42 -29 56
-44 48 -50 -9 -6 -7 -8 7 -6 14 2 24 -6 34 -29 9 -20 22 -33 33 -33 16 0 18
11 18 135 0 128 -1 135 -20 135 -18 0 -20 -7 -21 -57 -1 -32 0 -68 1 -80 1
-13 -1 -23 -5 -23 -3 0 -35 21 -71 48 -41 30 -68 58 -76 80 -9 23 -18 32 -35
32 -24 0 -24 0 -22 -135z m225 -55 c-1 -25 -3 -27 -15 -16 -11 12 -11 17 0 30
8 8 14 15 15 16 1 0 1 -13 0 -30z"/>
<path d="M1680 1195 c0 -23 4 -25 45 -25 l45 0 0 -110 c0 -107 1 -110 23 -110
22 0 22 2 19 110 l-4 110 46 0 c42 0 46 2 46 25 l0 25 -110 0 -110 0 0 -25z
m120 -9 c0 -11 -19 -15 -25 -6 -3 5 1 10 9 10 9 0 16 -2 16 -4z"/>
<path d="M1995 1208 c-7 -20 -82 -221 -90 -240 -6 -14 -2 -18 18 -18 20 0 28
7 37 36 10 30 16 35 34 30 11 -3 35 -6 53 -6 26 0 33 -5 42 -30 8 -23 16 -30
37 -30 17 0 24 4 21 13 -3 6 -26 67 -52 135 -43 109 -50 122 -72 122 -13 0
-26 -6 -28 -12z m59 -133 c5 -19 3 -21 -30 -17 -28 3 -34 8 -29 21 4 9 12 29
18 46 l11 30 12 -30 c6 -17 14 -39 18 -50z m-81 -30 c-3 -9 -8 -14 -10 -11 -3
3 -2 9 2 15 9 16 15 13 8 -4z m117 -6 c0 -5 -4 -9 -10 -9 -5 0 -10 7 -10 16 0
8 5 12 10 9 6 -3 10 -10 10 -16z"/>
<path d="M2220 1085 c0 -133 0 -135 23 -135 22 0 22 2 22 135 0 133 0 135 -22
135 -23 0 -23 -2 -23 -135z"/>
<path d="M1634 1043 c-2 -19 1 -22 12 -12 17 14 18 25 2 32 -8 3 -14 -5 -14
-20z"/>
<path d="M1485 970 c-3 -6 1 -7 9 -4 18 7 21 14 7 14 -6 0 -13 -4 -16 -10z"/>
<path d="M1572 928 c-6 -6 -12 -18 -12 -25 0 -7 -7 -13 -15 -13 -9 0 -24 -18
-33 -41 l-18 -42 -16 40 c-11 30 -22 41 -42 45 -14 3 -26 4 -26 3 0 -2 13 -33
29 -71 24 -56 27 -72 19 -96 -13 -37 -17 -32 -57 67 -37 91 -37 90 -73 99
l-27 6 30 -67 c84 -189 92 -203 114 -203 15 0 25 10 35 38 l14 37 14 -37 c11
-28 20 -38 37 -38 19 0 31 19 79 126 31 69 56 129 56 134 0 4 -11 5 -24 3 -20
-4 -33 -24 -67 -100 l-43 -95 -14 29 c-13 27 -12 34 18 92 17 35 29 69 26 76
-3 8 0 15 6 17 6 2 9 10 7 16 -3 10 -7 10 -17 0z m-62 -137 c0 -6 -4 -13 -10
-16 -5 -3 -10 1 -10 9 0 9 5 16 10 16 6 0 10 -4 10 -9z m0 -62 c0 -6 -4 -7
-10 -4 -5 3 -10 11 -10 16 0 6 5 7 10 4 6 -3 10 -11 10 -16z m44 -40 c18 15
22 1 4 -17 -13 -13 -38 1 -38 22 0 6 4 5 9 -3 8 -12 12 -12 25 -2z"/>
<path d="M890 760 l0 -130 59 0 c92 0 138 48 106 110 -11 22 -13 35 -5 49 16
30 12 50 -15 76 -20 21 -34 25 -85 25 l-60 0 0 -130z m110 75 c20 -24 4 -45
-33 -45 -29 0 -32 3 -31 28 1 15 3 28 3 30 3 9 51 -1 61 -13z m18 -119 c5 -24
-6 -34 -47 -38 -32 -3 -34 -1 -35 30 -1 32 0 33 39 30 29 -2 41 -8 43 -22z"/>
<path d="M1790 877 c-100 -50 -87 -216 19 -248 33 -10 44 -9 77 7 72 36 101
110 68 179 -30 65 -104 92 -164 62z m108 -63 c46 -51 12 -144 -53 -144 -33 0
-85 50 -85 82 1 52 54 103 95 92 11 -3 30 -17 43 -30z"/>
<path d="M1820 776 c-18 -22 -5 -48 22 -44 17 2 23 10 23 28 0 29 -26 38 -45
16z"/>
<path d="M2255 785 c-10 -25 -15 -48 -11 -52 3 -3 6 -1 6 6 0 7 7 28 16 47 9
19 14 37 11 40 -3 3 -13 -15 -22 -41z"/>
<path d="M1425 790 c-3 -5 -1 -10 4 -10 6 0 11 5 11 10 0 6 -2 10 -4 10 -3 0
-8 -4 -11 -10z"/>
<path d="M1976 601 c-21 -21 -58 -49 -82 -62 -24 -12 -49 -28 -55 -36 -6 -7
-17 -13 -25 -13 -7 0 -16 -5 -20 -12 -21 -34 182 98 209 137 25 35 17 31 -27
-14z"/>
<path d="M1995 520 c-16 -7 -17 -9 -3 -9 9 -1 20 4 23 9 7 11 7 11 -20 0z"/>
<path d="M1930 490 c-19 -11 -31 -19 -27 -20 11 0 67 29 67 35 0 7 -1 7 -40
-15z"/>
<path d="M1650 462 l-25 -25 25 15 c14 9 35 18 45 20 20 4 20 4 0 9 -13 4 -29
-3 -45 -19z"/>
<path d="M1728 463 c7 -3 16 -2 19 1 4 3 -2 6 -13 5 -11 0 -14 -3 -6 -6z"/>
<path d="M1835 463 c-11 -3 -24 -9 -29 -14 -5 -4 8 -3 30 2 58 16 57 26 -1 12z"/>
<path d="M1765 440 c-3 -6 1 -7 9 -4 18 7 21 14 7 14 -6 0 -13 -4 -16 -10z"/>
<path d="M1701 431 c-9 -6 -10 -11 -2 -15 6 -4 11 -3 11 3 0 5 10 12 23 14 19
4 19 4 2 5 -11 1 -26 -2 -34 -7z"/>
</g>
</svg>
